# xmcd
#
# Track frame offsets: 
#        150
#        25591
#        46829
#        72238
#        91638
#        110412
#        126278
#        140722
#        167042
#        192024
#        206274
#        222311
#
# Disc length: 3453 seconds
#
# Revision: 2
# Processed by: cddbd v1.5.2PL0 Copyright (c) Steve Scherf et al.
# Submitted via: ExactAudioCopy v0.99pb5
#
DISCID=a10d7b0c
DTITLE=Various Artist - Hoa Bien
DYEAR=1900
DGENRE=
TTITLE0=Tuan Vu and Nhu Mai - Que huong bon mua
TTITLE1=Tuan Vu - Muoi sau trang tron
TTITLE2=Tuan Vu and Giao Linh - Mot loai chim bien
TTITLE3=Tuan Vu - Tram nam ben cu
TTITLE4=Huong Lan - Hoa Bien
TTITLE5=Tuan Vu - Co be ngay xua
TTITLE6=Nhu Mai - Co ban hoc
TTITLE7=Tuan Vu and Giao Linh - Mua pense no
TTITLE8=Tuan Vu - Chuyen mot nguoi di
TTITLE9=Tuan Vu and Huong Lan - Mong uoc mai sau
TTITLE10=Tuan Vu - Tien buoc sang ngang
TTITLE11=Tuan Vu and Ngoc Lan - Nguoi chet tro ve
EXTD=
EXTT0=
EXTT1=
EXTT2=
EXTT3=
EXTT4=
EXTT5=
EXTT6=
EXTT7=
EXTT8=
EXTT9=
EXTT10=
EXTT11=
PLAYORDER=
